<?xml version="1.0" standalone="no"?>
<!DOCTYPE svg PUBLIC "-//W3C//DTD SVG 20010904//EN"
 "http://www.w3.org/TR/2001/REC-SVG-20010904/DTD/svg10.dtd">
<svg version="1.0" xmlns="http://www.w3.org/2000/svg"
 width="316.000000pt" height="316.000000pt" viewBox="0 0 316.000000 316.000000"
 preserveAspectRatio="xMidYMid meet">
<metadata>
Created by potrace 1.14, written by Peter Selinger 2001-2017
</metadata>
<g transform="translate(0.000000,316.000000) scale(0.100000,-0.100000)"
fill="#000000" stroke="none">
<path d="M1528 2655 c-2 -1 -32 -5 -68 -8 -240 -21 -486 -141 -660 -324 -151
-158 -230 -308 -281 -538 -13 -61 -17 -114 -14 -225 3 -149 5 -163 32 -265 75
-275 276 -526 533 -664 89 -47 226 -94 329 -111 75 -13 275 -16 321 -5 14 3
42 8 62 10 62 8 198 54 278 94 300 149 517 435 581 766 17 87 17 310 0 390
-92 445 -421 774 -856 859 -69 13 -249 28 -257 21z m229 -134 c265 -50 508
-220 650 -457 36 -59 99 -214 108 -264 40 -230 28 -393 -42 -569 -102 -260
-331 -475 -593 -559 -103 -33 -177 -45 -290 -47 -373 -5 -712 203 -875 540
-70 144 -98 265 -97 425 3 459 342 855 799 933 90 16 250 15 340 -2z"/>
<path d="M1240 2184 c-190 -107 -349 -195 -354 -197 -5 -2 -9 -171 -9 -401 0
-329 2 -399 14 -410 21 -20 670 -389 683 -389 16 0 684 381 692 395 4 6 7 186
7 400 0 322 -2 391 -14 402 -8 8 -81 53 -164 101 -82 48 -224 131 -315 184
-91 54 -172 100 -180 103 -9 3 -163 -78 -360 -188z m503 -144 c81 -121 144
-221 140 -221 -5 -1 -140 -2 -301 -3 -228 -1 -291 2 -288 11 8 21 291 432 297
433 3 0 72 -99 152 -220z m-383 24 c-56 -82 -112 -164 -123 -181 -12 -18 -25
-33 -29 -33 -12 0 -198 104 -198 112 0 3 28 22 63 41 34 19 78 43 97 54 19 11
62 35 95 53 66 36 114 64 160 90 17 10 31 16 33 15 2 -1 -43 -69 -98 -151z
m513 62 c78 -46 158 -93 177 -104 19 -10 52 -30 74 -42 l38 -23 -23 -18 c-13
-10 -27 -19 -30 -19 -3 0 -37 -17 -75 -38 l-69 -38 -122 183 c-68 101 -120
183 -117 183 3 0 69 -38 147 -84z m-781 -303 c76 -43 77 -45 65 -71 -32 -73
-197 -402 -202 -402 -3 0 -4 124 -4 275 l2 274 31 -16 c17 -9 66 -36 108 -60z
m1105 -183 c0 -133 -1 -239 -2 -238 -2 2 -45 87 -97 189 l-93 186 90 51 c49
28 93 51 96 52 3 0 6 -108 6 -240z m-317 94 c0 -8 -271 -477 -285 -492 -9 -10
-42 39 -155 235 -79 136 -145 251 -147 256 -2 4 129 7 291 7 163 0 296 -3 296
-6z m-637 -71 c13 -21 36 -60 51 -87 48 -87 198 -341 208 -353 9 -12 -6 -17
-42 -15 -3 0 -52 3 -110 7 -163 11 -200 13 -273 16 -41 1 -71 7 -73 14 -3 6
43 107 101 223 58 117 105 217 105 222 0 18 10 10 33 -27z m826 -188 c61 -120
109 -220 108 -221 -3 -3 -100 -10 -257 -19 -210 -12 -240 -13 -240 -9 0 9 272
475 276 472 1 -2 52 -102 113 -223z m6 -318 c-11 -8 -101 -60 -200 -117 -99
-56 -195 -111 -213 -121 -18 -11 -34 -19 -35 -19 -6 0 -1 230 5 236 9 8 34 10
212 19 72 4 132 7 133 8 1 1 28 3 60 5 52 2 56 1 38 -11z m-825 -12 c63 -4
131 -9 150 -10 19 -1 61 -3 93 -4 l57 -1 0 -120 c0 -66 -3 -120 -6 -120 -8 0
-464 260 -464 264 0 2 12 2 28 1 15 -2 79 -6 142 -10z"/>
</g>
</svg>
